<mxfile host="app.diagrams.net" agent="Mozilla/5.0 (Macintosh; Intel Mac OS X 10_15_7) AppleWebKit/537.36 (KHTML, like Gecko) Chrome/128.0.0.0 Safari/537.36" version="24.9.0">
  <diagram name="Page-1" id="haofyFQg-D4wTRPjmAY8">
    <mxGraphModel dx="3481" dy="1624" grid="1" gridSize="10" guides="1" tooltips="1" connect="1" arrows="1" fold="1" page="1" pageScale="1" pageWidth="850" pageHeight="1100" math="0" shadow="0">
      <root>
        <mxCell id="0" />
        <mxCell id="1" parent="0" />
        <mxCell id="p4-YSLTsnF-OEYS8-zl9-7" value="Flights Bookings&amp;nbsp;" style="swimlane;fontStyle=0;childLayout=stackLayout;horizontal=1;startSize=30;horizontalStack=0;resizeParent=1;resizeParentMax=0;resizeLast=0;collapsible=1;marginBottom=0;whiteSpace=wrap;html=1;" parent="1" vertex="1">
          <mxGeometry x="930" y="490" width="210" height="240" as="geometry" />
        </mxCell>
        <mxCell id="p4-YSLTsnF-OEYS8-zl9-10" value="Booking_ID" style="text;strokeColor=none;fillColor=none;align=left;verticalAlign=middle;spacingLeft=4;spacingRight=4;overflow=hidden;points=[[0,0.5],[1,0.5]];portConstraint=eastwest;rotatable=0;whiteSpace=wrap;html=1;" parent="p4-YSLTsnF-OEYS8-zl9-7" vertex="1">
          <mxGeometry y="30" width="210" height="30" as="geometry" />
        </mxCell>
        <mxCell id="G384VUHJVJKPxB7sCjbf-100" value="Booking_Date" style="text;strokeColor=none;fillColor=none;align=left;verticalAlign=middle;spacingLeft=4;spacingRight=4;overflow=hidden;points=[[0,0.5],[1,0.5]];portConstraint=eastwest;rotatable=0;whiteSpace=wrap;html=1;" parent="p4-YSLTsnF-OEYS8-zl9-7" vertex="1">
          <mxGeometry y="60" width="210" height="30" as="geometry" />
        </mxCell>
        <mxCell id="RYvwqwiHmOamptoqeDsD-16" value="Booking_Price" style="text;strokeColor=none;fillColor=none;align=left;verticalAlign=middle;spacingLeft=4;spacingRight=4;overflow=hidden;points=[[0,0.5],[1,0.5]];portConstraint=eastwest;rotatable=0;whiteSpace=wrap;html=1;" parent="p4-YSLTsnF-OEYS8-zl9-7" vertex="1">
          <mxGeometry y="90" width="210" height="30" as="geometry" />
        </mxCell>
        <mxCell id="G384VUHJVJKPxB7sCjbf-58" value="Invoice_ID redoundant" style="text;strokeColor=none;fillColor=none;align=left;verticalAlign=middle;spacingLeft=4;spacingRight=4;overflow=hidden;points=[[0,0.5],[1,0.5]];portConstraint=eastwest;rotatable=0;whiteSpace=wrap;html=1;" parent="p4-YSLTsnF-OEYS8-zl9-7" vertex="1">
          <mxGeometry y="120" width="210" height="30" as="geometry" />
        </mxCell>
        <mxCell id="G384VUHJVJKPxB7sCjbf-62" value="Route_ID&amp;nbsp;" style="text;strokeColor=none;fillColor=none;align=left;verticalAlign=middle;spacingLeft=4;spacingRight=4;overflow=hidden;points=[[0,0.5],[1,0.5]];portConstraint=eastwest;rotatable=0;whiteSpace=wrap;html=1;" parent="p4-YSLTsnF-OEYS8-zl9-7" vertex="1">
          <mxGeometry y="150" width="210" height="30" as="geometry" />
        </mxCell>
        <mxCell id="G384VUHJVJKPxB7sCjbf-49" value="Start_Date" style="text;strokeColor=none;fillColor=none;align=left;verticalAlign=middle;spacingLeft=4;spacingRight=4;overflow=hidden;points=[[0,0.5],[1,0.5]];portConstraint=eastwest;rotatable=0;whiteSpace=wrap;html=1;" parent="p4-YSLTsnF-OEYS8-zl9-7" vertex="1">
          <mxGeometry y="180" width="210" height="30" as="geometry" />
        </mxCell>
        <mxCell id="G384VUHJVJKPxB7sCjbf-50" value="End_Date |&amp;nbsp;" style="text;strokeColor=none;fillColor=none;align=left;verticalAlign=middle;spacingLeft=4;spacingRight=4;overflow=hidden;points=[[0,0.5],[1,0.5]];portConstraint=eastwest;rotatable=0;whiteSpace=wrap;html=1;" parent="p4-YSLTsnF-OEYS8-zl9-7" vertex="1">
          <mxGeometry y="210" width="210" height="30" as="geometry" />
        </mxCell>
        <mxCell id="G384VUHJVJKPxB7sCjbf-2" value="Customer" style="swimlane;fontStyle=0;childLayout=stackLayout;horizontal=1;startSize=30;horizontalStack=0;resizeParent=1;resizeParentMax=0;resizeLast=0;collapsible=1;marginBottom=0;whiteSpace=wrap;html=1;" parent="1" vertex="1">
          <mxGeometry x="150" y="830" width="140" height="180" as="geometry" />
        </mxCell>
        <mxCell id="G384VUHJVJKPxB7sCjbf-3" value="Customer_ID" style="text;strokeColor=none;fillColor=none;align=left;verticalAlign=middle;spacingLeft=4;spacingRight=4;overflow=hidden;points=[[0,0.5],[1,0.5]];portConstraint=eastwest;rotatable=0;whiteSpace=wrap;html=1;" parent="G384VUHJVJKPxB7sCjbf-2" vertex="1">
          <mxGeometry y="30" width="140" height="30" as="geometry" />
        </mxCell>
        <mxCell id="G384VUHJVJKPxB7sCjbf-9" value="Adress" style="text;strokeColor=none;fillColor=none;align=left;verticalAlign=middle;spacingLeft=4;spacingRight=4;overflow=hidden;points=[[0,0.5],[1,0.5]];portConstraint=eastwest;rotatable=0;whiteSpace=wrap;html=1;" parent="G384VUHJVJKPxB7sCjbf-2" vertex="1">
          <mxGeometry y="60" width="140" height="30" as="geometry" />
        </mxCell>
        <mxCell id="G384VUHJVJKPxB7sCjbf-15" value="ZIP_Code" style="text;strokeColor=none;fillColor=none;align=left;verticalAlign=middle;spacingLeft=4;spacingRight=4;overflow=hidden;points=[[0,0.5],[1,0.5]];portConstraint=eastwest;rotatable=0;whiteSpace=wrap;html=1;" parent="G384VUHJVJKPxB7sCjbf-2" vertex="1">
          <mxGeometry y="90" width="140" height="30" as="geometry" />
        </mxCell>
        <mxCell id="G384VUHJVJKPxB7sCjbf-10" value="Birthyear" style="text;strokeColor=none;fillColor=none;align=left;verticalAlign=middle;spacingLeft=4;spacingRight=4;overflow=hidden;points=[[0,0.5],[1,0.5]];portConstraint=eastwest;rotatable=0;whiteSpace=wrap;html=1;" parent="G384VUHJVJKPxB7sCjbf-2" vertex="1">
          <mxGeometry y="120" width="140" height="30" as="geometry" />
        </mxCell>
        <mxCell id="G384VUHJVJKPxB7sCjbf-12" value="E-mail" style="text;strokeColor=none;fillColor=none;align=left;verticalAlign=middle;spacingLeft=4;spacingRight=4;overflow=hidden;points=[[0,0.5],[1,0.5]];portConstraint=eastwest;rotatable=0;whiteSpace=wrap;html=1;" parent="G384VUHJVJKPxB7sCjbf-2" vertex="1">
          <mxGeometry y="150" width="140" height="30" as="geometry" />
        </mxCell>
        <mxCell id="G384VUHJVJKPxB7sCjbf-4" value="ZIP_City" style="swimlane;fontStyle=0;childLayout=stackLayout;horizontal=1;startSize=30;horizontalStack=0;resizeParent=1;resizeParentMax=0;resizeLast=0;collapsible=1;marginBottom=0;whiteSpace=wrap;html=1;" parent="1" vertex="1">
          <mxGeometry x="-150" y="960" width="140" height="90" as="geometry" />
        </mxCell>
        <mxCell id="G384VUHJVJKPxB7sCjbf-5" value="ZIP_Code" style="text;strokeColor=none;fillColor=none;align=left;verticalAlign=middle;spacingLeft=4;spacingRight=4;overflow=hidden;points=[[0,0.5],[1,0.5]];portConstraint=eastwest;rotatable=0;whiteSpace=wrap;html=1;" parent="G384VUHJVJKPxB7sCjbf-4" vertex="1">
          <mxGeometry y="30" width="140" height="30" as="geometry" />
        </mxCell>
        <mxCell id="G384VUHJVJKPxB7sCjbf-21" value="City-ID" style="text;strokeColor=none;fillColor=none;align=left;verticalAlign=middle;spacingLeft=4;spacingRight=4;overflow=hidden;points=[[0,0.5],[1,0.5]];portConstraint=eastwest;rotatable=0;whiteSpace=wrap;html=1;" parent="G384VUHJVJKPxB7sCjbf-4" vertex="1">
          <mxGeometry y="60" width="140" height="30" as="geometry" />
        </mxCell>
        <mxCell id="G384VUHJVJKPxB7sCjbf-18" value="City" style="swimlane;fontStyle=0;childLayout=stackLayout;horizontal=1;startSize=30;horizontalStack=0;resizeParent=1;resizeParentMax=0;resizeLast=0;collapsible=1;marginBottom=0;whiteSpace=wrap;html=1;" parent="1" vertex="1">
          <mxGeometry x="350" y="1160" width="140" height="120" as="geometry" />
        </mxCell>
        <mxCell id="G384VUHJVJKPxB7sCjbf-19" value="City_ID" style="text;strokeColor=none;fillColor=none;align=left;verticalAlign=middle;spacingLeft=4;spacingRight=4;overflow=hidden;points=[[0,0.5],[1,0.5]];portConstraint=eastwest;rotatable=0;whiteSpace=wrap;html=1;" parent="G384VUHJVJKPxB7sCjbf-18" vertex="1">
          <mxGeometry y="30" width="140" height="30" as="geometry" />
        </mxCell>
        <mxCell id="G384VUHJVJKPxB7sCjbf-23" value="City" style="text;strokeColor=none;fillColor=none;align=left;verticalAlign=middle;spacingLeft=4;spacingRight=4;overflow=hidden;points=[[0,0.5],[1,0.5]];portConstraint=eastwest;rotatable=0;whiteSpace=wrap;html=1;" parent="G384VUHJVJKPxB7sCjbf-18" vertex="1">
          <mxGeometry y="60" width="140" height="30" as="geometry" />
        </mxCell>
        <mxCell id="G384VUHJVJKPxB7sCjbf-39" value="State_ID" style="text;strokeColor=none;fillColor=none;align=left;verticalAlign=middle;spacingLeft=4;spacingRight=4;overflow=hidden;points=[[0,0.5],[1,0.5]];portConstraint=eastwest;rotatable=0;whiteSpace=wrap;html=1;" parent="G384VUHJVJKPxB7sCjbf-18" vertex="1">
          <mxGeometry y="90" width="140" height="30" as="geometry" />
        </mxCell>
        <mxCell id="G384VUHJVJKPxB7sCjbf-26" value="Country" style="swimlane;fontStyle=0;childLayout=stackLayout;horizontal=1;startSize=30;horizontalStack=0;resizeParent=1;resizeParentMax=0;resizeLast=0;collapsible=1;marginBottom=0;whiteSpace=wrap;html=1;" parent="1" vertex="1">
          <mxGeometry x="-400" y="1105" width="140" height="90" as="geometry" />
        </mxCell>
        <mxCell id="G384VUHJVJKPxB7sCjbf-27" value="Country_ID" style="text;strokeColor=none;fillColor=none;align=left;verticalAlign=middle;spacingLeft=4;spacingRight=4;overflow=hidden;points=[[0,0.5],[1,0.5]];portConstraint=eastwest;rotatable=0;whiteSpace=wrap;html=1;" parent="G384VUHJVJKPxB7sCjbf-26" vertex="1">
          <mxGeometry y="30" width="140" height="30" as="geometry" />
        </mxCell>
        <mxCell id="G384VUHJVJKPxB7sCjbf-28" value="Country" style="text;strokeColor=none;fillColor=none;align=left;verticalAlign=middle;spacingLeft=4;spacingRight=4;overflow=hidden;points=[[0,0.5],[1,0.5]];portConstraint=eastwest;rotatable=0;whiteSpace=wrap;html=1;" parent="G384VUHJVJKPxB7sCjbf-26" vertex="1">
          <mxGeometry y="60" width="140" height="30" as="geometry" />
        </mxCell>
        <mxCell id="G384VUHJVJKPxB7sCjbf-47" value="&lt;b&gt;&lt;u&gt;&lt;font style=&quot;font-size: 16px; background-color: rgb(151, 208, 119);&quot;&gt;Travel agency LRS&lt;/font&gt;&lt;/u&gt;&lt;/b&gt;" style="rounded=0;whiteSpace=wrap;html=1;" parent="1" vertex="1">
          <mxGeometry x="570" y="20" width="265" height="60" as="geometry" />
        </mxCell>
        <mxCell id="RYvwqwiHmOamptoqeDsD-17" style="edgeStyle=orthogonalEdgeStyle;rounded=0;orthogonalLoop=1;jettySize=auto;html=1;entryX=0.5;entryY=0;entryDx=0;entryDy=0;" parent="1" source="G384VUHJVJKPxB7sCjbf-57" target="RYvwqwiHmOamptoqeDsD-3" edge="1">
          <mxGeometry relative="1" as="geometry" />
        </mxCell>
        <mxCell id="G384VUHJVJKPxB7sCjbf-51" value="Invoice | View" style="swimlane;fontStyle=0;childLayout=stackLayout;horizontal=1;startSize=30;horizontalStack=0;resizeParent=1;resizeParentMax=0;resizeLast=0;collapsible=1;marginBottom=0;whiteSpace=wrap;html=1;" parent="1" vertex="1">
          <mxGeometry x="160" y="315" width="210" height="150" as="geometry" />
        </mxCell>
        <mxCell id="G384VUHJVJKPxB7sCjbf-57" value="Invoice_ID" style="text;strokeColor=none;fillColor=none;align=left;verticalAlign=middle;spacingLeft=4;spacingRight=4;overflow=hidden;points=[[0,0.5],[1,0.5]];portConstraint=eastwest;rotatable=0;whiteSpace=wrap;html=1;" parent="G384VUHJVJKPxB7sCjbf-51" vertex="1">
          <mxGeometry y="30" width="210" height="30" as="geometry" />
        </mxCell>
        <mxCell id="G384VUHJVJKPxB7sCjbf-102" value="Invoice_Date" style="text;strokeColor=none;fillColor=none;align=left;verticalAlign=middle;spacingLeft=4;spacingRight=4;overflow=hidden;points=[[0,0.5],[1,0.5]];portConstraint=eastwest;rotatable=0;whiteSpace=wrap;html=1;" parent="G384VUHJVJKPxB7sCjbf-51" vertex="1">
          <mxGeometry y="60" width="210" height="30" as="geometry" />
        </mxCell>
        <mxCell id="G384VUHJVJKPxB7sCjbf-61" value="Customer_ID" style="text;strokeColor=none;fillColor=none;align=left;verticalAlign=middle;spacingLeft=4;spacingRight=4;overflow=hidden;points=[[0,0.5],[1,0.5]];portConstraint=eastwest;rotatable=0;whiteSpace=wrap;html=1;" parent="G384VUHJVJKPxB7sCjbf-51" vertex="1">
          <mxGeometry y="90" width="210" height="30" as="geometry" />
        </mxCell>
        <mxCell id="RYvwqwiHmOamptoqeDsD-2" value="Price_Sum" style="text;strokeColor=none;fillColor=none;align=left;verticalAlign=middle;spacingLeft=4;spacingRight=4;overflow=hidden;points=[[0,0.5],[1,0.5]];portConstraint=eastwest;rotatable=0;whiteSpace=wrap;html=1;" parent="G384VUHJVJKPxB7sCjbf-51" vertex="1">
          <mxGeometry y="120" width="210" height="30" as="geometry" />
        </mxCell>
        <mxCell id="G384VUHJVJKPxB7sCjbf-63" value="Route" style="swimlane;fontStyle=0;childLayout=stackLayout;horizontal=1;startSize=30;horizontalStack=0;resizeParent=1;resizeParentMax=0;resizeLast=0;collapsible=1;marginBottom=0;whiteSpace=wrap;html=1;" parent="1" vertex="1">
          <mxGeometry x="1030" y="800" width="210" height="120" as="geometry" />
        </mxCell>
        <mxCell id="G384VUHJVJKPxB7sCjbf-64" value="Route_ID" style="text;strokeColor=none;fillColor=none;align=left;verticalAlign=middle;spacingLeft=4;spacingRight=4;overflow=hidden;points=[[0,0.5],[1,0.5]];portConstraint=eastwest;rotatable=0;whiteSpace=wrap;html=1;" parent="G384VUHJVJKPxB7sCjbf-63" vertex="1">
          <mxGeometry y="30" width="210" height="30" as="geometry" />
        </mxCell>
        <mxCell id="G384VUHJVJKPxB7sCjbf-65" value="Startplace_ID" style="text;strokeColor=none;fillColor=none;align=left;verticalAlign=middle;spacingLeft=4;spacingRight=4;overflow=hidden;points=[[0,0.5],[1,0.5]];portConstraint=eastwest;rotatable=0;whiteSpace=wrap;html=1;" parent="G384VUHJVJKPxB7sCjbf-63" vertex="1">
          <mxGeometry y="60" width="210" height="30" as="geometry" />
        </mxCell>
        <mxCell id="G384VUHJVJKPxB7sCjbf-66" value="Endplace_ID" style="text;strokeColor=none;fillColor=none;align=left;verticalAlign=middle;spacingLeft=4;spacingRight=4;overflow=hidden;points=[[0,0.5],[1,0.5]];portConstraint=eastwest;rotatable=0;whiteSpace=wrap;html=1;" parent="G384VUHJVJKPxB7sCjbf-63" vertex="1">
          <mxGeometry y="90" width="210" height="30" as="geometry" />
        </mxCell>
        <mxCell id="G384VUHJVJKPxB7sCjbf-69" value="Hotel Bookings&amp;nbsp;" style="swimlane;fontStyle=0;childLayout=stackLayout;horizontal=1;startSize=30;horizontalStack=0;resizeParent=1;resizeParentMax=0;resizeLast=0;collapsible=1;marginBottom=0;whiteSpace=wrap;html=1;" parent="1" vertex="1">
          <mxGeometry x="1130" y="150" width="210" height="240" as="geometry" />
        </mxCell>
        <mxCell id="G384VUHJVJKPxB7sCjbf-70" value="Booking_ID" style="text;strokeColor=none;fillColor=none;align=left;verticalAlign=middle;spacingLeft=4;spacingRight=4;overflow=hidden;points=[[0,0.5],[1,0.5]];portConstraint=eastwest;rotatable=0;whiteSpace=wrap;html=1;" parent="G384VUHJVJKPxB7sCjbf-69" vertex="1">
          <mxGeometry y="30" width="210" height="30" as="geometry" />
        </mxCell>
        <mxCell id="G384VUHJVJKPxB7sCjbf-99" value="Booking_Date&amp;nbsp;" style="text;strokeColor=none;fillColor=none;align=left;verticalAlign=middle;spacingLeft=4;spacingRight=4;overflow=hidden;points=[[0,0.5],[1,0.5]];portConstraint=eastwest;rotatable=0;whiteSpace=wrap;html=1;" parent="G384VUHJVJKPxB7sCjbf-69" vertex="1">
          <mxGeometry y="60" width="210" height="30" as="geometry" />
        </mxCell>
        <mxCell id="RYvwqwiHmOamptoqeDsD-1" value="Booking_Price" style="text;strokeColor=none;fillColor=none;align=left;verticalAlign=middle;spacingLeft=4;spacingRight=4;overflow=hidden;points=[[0,0.5],[1,0.5]];portConstraint=eastwest;rotatable=0;whiteSpace=wrap;html=1;" parent="G384VUHJVJKPxB7sCjbf-69" vertex="1">
          <mxGeometry y="90" width="210" height="30" as="geometry" />
        </mxCell>
        <mxCell id="G384VUHJVJKPxB7sCjbf-71" value="Invoice_ID_ redoundant" style="text;strokeColor=none;fillColor=none;align=left;verticalAlign=middle;spacingLeft=4;spacingRight=4;overflow=hidden;points=[[0,0.5],[1,0.5]];portConstraint=eastwest;rotatable=0;whiteSpace=wrap;html=1;" parent="G384VUHJVJKPxB7sCjbf-69" vertex="1">
          <mxGeometry y="120" width="210" height="30" as="geometry" />
        </mxCell>
        <mxCell id="G384VUHJVJKPxB7sCjbf-72" value="Hotel_ID&amp;nbsp;" style="text;strokeColor=none;fillColor=none;align=left;verticalAlign=middle;spacingLeft=4;spacingRight=4;overflow=hidden;points=[[0,0.5],[1,0.5]];portConstraint=eastwest;rotatable=0;whiteSpace=wrap;html=1;" parent="G384VUHJVJKPxB7sCjbf-69" vertex="1">
          <mxGeometry y="150" width="210" height="30" as="geometry" />
        </mxCell>
        <mxCell id="G384VUHJVJKPxB7sCjbf-73" value="Start_Date" style="text;strokeColor=none;fillColor=none;align=left;verticalAlign=middle;spacingLeft=4;spacingRight=4;overflow=hidden;points=[[0,0.5],[1,0.5]];portConstraint=eastwest;rotatable=0;whiteSpace=wrap;html=1;" parent="G384VUHJVJKPxB7sCjbf-69" vertex="1">
          <mxGeometry y="180" width="210" height="30" as="geometry" />
        </mxCell>
        <mxCell id="G384VUHJVJKPxB7sCjbf-74" value="End_Date" style="text;strokeColor=none;fillColor=none;align=left;verticalAlign=middle;spacingLeft=4;spacingRight=4;overflow=hidden;points=[[0,0.5],[1,0.5]];portConstraint=eastwest;rotatable=0;whiteSpace=wrap;html=1;" parent="G384VUHJVJKPxB7sCjbf-69" vertex="1">
          <mxGeometry y="210" width="210" height="30" as="geometry" />
        </mxCell>
        <mxCell id="G384VUHJVJKPxB7sCjbf-89" value="Calendar" style="swimlane;fontStyle=0;childLayout=stackLayout;horizontal=1;startSize=30;horizontalStack=0;resizeParent=1;resizeParentMax=0;resizeLast=0;collapsible=1;marginBottom=0;whiteSpace=wrap;html=1;" parent="1" vertex="1">
          <mxGeometry x="540" y="440" width="140" height="180" as="geometry" />
        </mxCell>
        <mxCell id="G384VUHJVJKPxB7sCjbf-91" value="Date = ID" style="text;strokeColor=none;fillColor=none;align=left;verticalAlign=middle;spacingLeft=4;spacingRight=4;overflow=hidden;points=[[0,0.5],[1,0.5]];portConstraint=eastwest;rotatable=0;whiteSpace=wrap;html=1;" parent="G384VUHJVJKPxB7sCjbf-89" vertex="1">
          <mxGeometry y="30" width="140" height="30" as="geometry" />
        </mxCell>
        <mxCell id="G384VUHJVJKPxB7sCjbf-92" value="Date_Year" style="text;strokeColor=none;fillColor=none;align=left;verticalAlign=middle;spacingLeft=4;spacingRight=4;overflow=hidden;points=[[0,0.5],[1,0.5]];portConstraint=eastwest;rotatable=0;whiteSpace=wrap;html=1;" parent="G384VUHJVJKPxB7sCjbf-89" vertex="1">
          <mxGeometry y="60" width="140" height="30" as="geometry" />
        </mxCell>
        <mxCell id="G384VUHJVJKPxB7sCjbf-94" value="Date_Month" style="text;strokeColor=none;fillColor=none;align=left;verticalAlign=middle;spacingLeft=4;spacingRight=4;overflow=hidden;points=[[0,0.5],[1,0.5]];portConstraint=eastwest;rotatable=0;whiteSpace=wrap;html=1;" parent="G384VUHJVJKPxB7sCjbf-89" vertex="1">
          <mxGeometry y="90" width="140" height="30" as="geometry" />
        </mxCell>
        <mxCell id="G384VUHJVJKPxB7sCjbf-95" value="Date_Day" style="text;strokeColor=none;fillColor=none;align=left;verticalAlign=middle;spacingLeft=4;spacingRight=4;overflow=hidden;points=[[0,0.5],[1,0.5]];portConstraint=eastwest;rotatable=0;whiteSpace=wrap;html=1;" parent="G384VUHJVJKPxB7sCjbf-89" vertex="1">
          <mxGeometry y="120" width="140" height="30" as="geometry" />
        </mxCell>
        <mxCell id="G384VUHJVJKPxB7sCjbf-96" value="Quarter" style="text;strokeColor=none;fillColor=none;align=left;verticalAlign=middle;spacingLeft=4;spacingRight=4;overflow=hidden;points=[[0,0.5],[1,0.5]];portConstraint=eastwest;rotatable=0;whiteSpace=wrap;html=1;" parent="G384VUHJVJKPxB7sCjbf-89" vertex="1">
          <mxGeometry y="150" width="140" height="30" as="geometry" />
        </mxCell>
        <mxCell id="G384VUHJVJKPxB7sCjbf-97" value="&lt;div style=&quot;&quot;&gt;Create a view of yesterdays transactions.&lt;/div&gt;&lt;div style=&quot;&quot;&gt;If view is not null then we created yesterday in calendar with a trigger&lt;/div&gt;" style="rounded=0;whiteSpace=wrap;html=1;align=center;" parent="1" vertex="1">
          <mxGeometry x="-270" y="630" width="240" height="110" as="geometry" />
        </mxCell>
        <mxCell id="RYvwqwiHmOamptoqeDsD-18" value="Hotels" style="swimlane;fontStyle=0;childLayout=stackLayout;horizontal=1;startSize=30;horizontalStack=0;resizeParent=1;resizeParentMax=0;resizeLast=0;collapsible=1;marginBottom=0;whiteSpace=wrap;html=1;" parent="1" vertex="1">
          <mxGeometry x="1340" y="810" width="210" height="120" as="geometry" />
        </mxCell>
        <mxCell id="RYvwqwiHmOamptoqeDsD-21" value="Hotel_ID" style="text;strokeColor=none;fillColor=none;align=left;verticalAlign=middle;spacingLeft=4;spacingRight=4;overflow=hidden;points=[[0,0.5],[1,0.5]];portConstraint=eastwest;rotatable=0;whiteSpace=wrap;html=1;" parent="RYvwqwiHmOamptoqeDsD-18" vertex="1">
          <mxGeometry y="30" width="210" height="30" as="geometry" />
        </mxCell>
        <mxCell id="RYvwqwiHmOamptoqeDsD-37" value="Hotel_Name" style="text;strokeColor=none;fillColor=none;align=left;verticalAlign=middle;spacingLeft=4;spacingRight=4;overflow=hidden;points=[[0,0.5],[1,0.5]];portConstraint=eastwest;rotatable=0;whiteSpace=wrap;html=1;" parent="RYvwqwiHmOamptoqeDsD-18" vertex="1">
          <mxGeometry y="60" width="210" height="30" as="geometry" />
        </mxCell>
        <mxCell id="RYvwqwiHmOamptoqeDsD-25" value="City_ID" style="text;strokeColor=none;fillColor=none;align=left;verticalAlign=middle;spacingLeft=4;spacingRight=4;overflow=hidden;points=[[0,0.5],[1,0.5]];portConstraint=eastwest;rotatable=0;whiteSpace=wrap;html=1;" parent="RYvwqwiHmOamptoqeDsD-18" vertex="1">
          <mxGeometry y="90" width="210" height="30" as="geometry" />
        </mxCell>
        <mxCell id="RYvwqwiHmOamptoqeDsD-30" value="State" style="swimlane;fontStyle=0;childLayout=stackLayout;horizontal=1;startSize=30;horizontalStack=0;resizeParent=1;resizeParentMax=0;resizeLast=0;collapsible=1;marginBottom=0;whiteSpace=wrap;html=1;" parent="1" vertex="1">
          <mxGeometry x="-150" y="1220" width="140" height="120" as="geometry" />
        </mxCell>
        <mxCell id="RYvwqwiHmOamptoqeDsD-31" value="State_ID" style="text;strokeColor=none;fillColor=none;align=left;verticalAlign=middle;spacingLeft=4;spacingRight=4;overflow=hidden;points=[[0,0.5],[1,0.5]];portConstraint=eastwest;rotatable=0;whiteSpace=wrap;html=1;" parent="RYvwqwiHmOamptoqeDsD-30" vertex="1">
          <mxGeometry y="30" width="140" height="30" as="geometry" />
        </mxCell>
        <mxCell id="RYvwqwiHmOamptoqeDsD-32" value="State" style="text;strokeColor=none;fillColor=none;align=left;verticalAlign=middle;spacingLeft=4;spacingRight=4;overflow=hidden;points=[[0,0.5],[1,0.5]];portConstraint=eastwest;rotatable=0;whiteSpace=wrap;html=1;" parent="RYvwqwiHmOamptoqeDsD-30" vertex="1">
          <mxGeometry y="60" width="140" height="30" as="geometry" />
        </mxCell>
        <mxCell id="RYvwqwiHmOamptoqeDsD-33" value="Country_ID" style="text;strokeColor=none;fillColor=none;align=left;verticalAlign=middle;spacingLeft=4;spacingRight=4;overflow=hidden;points=[[0,0.5],[1,0.5]];portConstraint=eastwest;rotatable=0;whiteSpace=wrap;html=1;" parent="RYvwqwiHmOamptoqeDsD-30" vertex="1">
          <mxGeometry y="90" width="140" height="30" as="geometry" />
        </mxCell>
        <mxCell id="RYvwqwiHmOamptoqeDsD-3" value="Invoice_Bookings" style="swimlane;fontStyle=0;childLayout=stackLayout;horizontal=1;startSize=30;horizontalStack=0;resizeParent=1;resizeParentMax=0;resizeLast=0;collapsible=1;marginBottom=0;whiteSpace=wrap;html=1;" parent="1" vertex="1">
          <mxGeometry x="630" y="190" width="210" height="120" as="geometry" />
        </mxCell>
        <mxCell id="RYvwqwiHmOamptoqeDsD-4" value="Invoice_ID -&amp;nbsp; &amp;nbsp;(PK)" style="text;strokeColor=none;fillColor=none;align=left;verticalAlign=middle;spacingLeft=4;spacingRight=4;overflow=hidden;points=[[0,0.5],[1,0.5]];portConstraint=eastwest;rotatable=0;whiteSpace=wrap;html=1;" parent="RYvwqwiHmOamptoqeDsD-3" vertex="1">
          <mxGeometry y="30" width="210" height="30" as="geometry" />
        </mxCell>
        <mxCell id="RYvwqwiHmOamptoqeDsD-9" value="Booking_ID -&amp;nbsp; &amp;nbsp;(F&lt;span style=&quot;background-color: initial;&quot;&gt;K)&lt;/span&gt;" style="text;strokeColor=none;fillColor=none;align=left;verticalAlign=middle;spacingLeft=4;spacingRight=4;overflow=hidden;points=[[0,0.5],[1,0.5]];portConstraint=eastwest;rotatable=0;whiteSpace=wrap;html=1;" parent="RYvwqwiHmOamptoqeDsD-3" vertex="1">
          <mxGeometry y="60" width="210" height="30" as="geometry" />
        </mxCell>
        <mxCell id="RYvwqwiHmOamptoqeDsD-13" value="Booking_Type" style="text;strokeColor=none;fillColor=none;align=left;verticalAlign=middle;spacingLeft=4;spacingRight=4;overflow=hidden;points=[[0,0.5],[1,0.5]];portConstraint=eastwest;rotatable=0;whiteSpace=wrap;html=1;" parent="RYvwqwiHmOamptoqeDsD-3" vertex="1">
          <mxGeometry y="90" width="210" height="30" as="geometry" />
        </mxCell>
        <mxCell id="Tv7fsrCwuL-PAWgneGHG-6" value="" style="edgeStyle=entityRelationEdgeStyle;fontSize=12;html=1;endArrow=ERmany;startArrow=ERmany;rounded=0;exitX=1;exitY=0.5;exitDx=0;exitDy=0;" edge="1" parent="1" source="G384VUHJVJKPxB7sCjbf-19" target="G384VUHJVJKPxB7sCjbf-66">
          <mxGeometry width="100" height="100" relative="1" as="geometry">
            <mxPoint x="980" y="1280" as="sourcePoint" />
            <mxPoint x="1080" y="1180" as="targetPoint" />
          </mxGeometry>
        </mxCell>
        <mxCell id="Tv7fsrCwuL-PAWgneGHG-7" value="" style="edgeStyle=entityRelationEdgeStyle;fontSize=12;html=1;endArrow=ERmany;startArrow=ERmany;rounded=0;" edge="1" parent="1" source="G384VUHJVJKPxB7sCjbf-19" target="G384VUHJVJKPxB7sCjbf-65">
          <mxGeometry width="100" height="100" relative="1" as="geometry">
            <mxPoint x="720" y="1130" as="sourcePoint" />
            <mxPoint x="1140.0499999999997" y="1179.9999999999998" as="targetPoint" />
          </mxGeometry>
        </mxCell>
        <mxCell id="Tv7fsrCwuL-PAWgneGHG-9" value="" style="edgeStyle=entityRelationEdgeStyle;fontSize=12;html=1;endArrow=ERmany;startArrow=ERmany;rounded=0;" edge="1" parent="1" source="G384VUHJVJKPxB7sCjbf-19" target="RYvwqwiHmOamptoqeDsD-25">
          <mxGeometry width="100" height="100" relative="1" as="geometry">
            <mxPoint x="1350" y="1160" as="sourcePoint" />
            <mxPoint x="1350" y="890" as="targetPoint" />
            <Array as="points">
              <mxPoint x="770" y="1135" />
            </Array>
          </mxGeometry>
        </mxCell>
        <mxCell id="Tv7fsrCwuL-PAWgneGHG-11" value="" style="edgeStyle=entityRelationEdgeStyle;fontSize=12;html=1;endArrow=ERmany;startArrow=ERmany;rounded=0;" edge="1" parent="1">
          <mxGeometry width="100" height="100" relative="1" as="geometry">
            <mxPoint x="1110" y="1460" as="sourcePoint" />
            <mxPoint x="1210" y="1360" as="targetPoint" />
          </mxGeometry>
        </mxCell>
        <mxCell id="Tv7fsrCwuL-PAWgneGHG-12" value="" style="edgeStyle=entityRelationEdgeStyle;fontSize=12;html=1;endArrow=ERmany;startArrow=ERmany;rounded=0;" edge="1" parent="1">
          <mxGeometry width="100" height="100" relative="1" as="geometry">
            <mxPoint x="1120" y="1470" as="sourcePoint" />
            <mxPoint x="1220" y="1370" as="targetPoint" />
          </mxGeometry>
        </mxCell>
        <mxCell id="Tv7fsrCwuL-PAWgneGHG-13" value="" style="edgeStyle=entityRelationEdgeStyle;fontSize=12;html=1;endArrow=ERmany;startArrow=ERmany;rounded=0;" edge="1" parent="1">
          <mxGeometry width="100" height="100" relative="1" as="geometry">
            <mxPoint x="1130" y="1480" as="sourcePoint" />
            <mxPoint x="1230" y="1380" as="targetPoint" />
          </mxGeometry>
        </mxCell>
        <mxCell id="Tv7fsrCwuL-PAWgneGHG-14" value="" style="edgeStyle=entityRelationEdgeStyle;fontSize=12;html=1;endArrow=ERmany;startArrow=ERmany;rounded=0;" edge="1" parent="1">
          <mxGeometry width="100" height="100" relative="1" as="geometry">
            <mxPoint x="1140" y="1490" as="sourcePoint" />
            <mxPoint x="1240" y="1390" as="targetPoint" />
          </mxGeometry>
        </mxCell>
        <mxCell id="Tv7fsrCwuL-PAWgneGHG-15" value="" style="edgeStyle=entityRelationEdgeStyle;fontSize=12;html=1;endArrow=ERmany;startArrow=ERmany;rounded=0;" edge="1" parent="1">
          <mxGeometry width="100" height="100" relative="1" as="geometry">
            <mxPoint x="1150" y="1500" as="sourcePoint" />
            <mxPoint x="1250" y="1400" as="targetPoint" />
          </mxGeometry>
        </mxCell>
        <mxCell id="Tv7fsrCwuL-PAWgneGHG-16" value="" style="edgeStyle=entityRelationEdgeStyle;fontSize=12;html=1;endArrow=ERmany;startArrow=ERmany;rounded=0;" edge="1" parent="1">
          <mxGeometry width="100" height="100" relative="1" as="geometry">
            <mxPoint x="1160" y="1510" as="sourcePoint" />
            <mxPoint x="1260" y="1410" as="targetPoint" />
          </mxGeometry>
        </mxCell>
        <mxCell id="Tv7fsrCwuL-PAWgneGHG-17" value="" style="edgeStyle=entityRelationEdgeStyle;fontSize=12;html=1;endArrow=ERmany;startArrow=ERmany;rounded=0;" edge="1" parent="1">
          <mxGeometry width="100" height="100" relative="1" as="geometry">
            <mxPoint x="1170" y="1520" as="sourcePoint" />
            <mxPoint x="1270" y="1420" as="targetPoint" />
          </mxGeometry>
        </mxCell>
        <mxCell id="Tv7fsrCwuL-PAWgneGHG-18" value="" style="edgeStyle=entityRelationEdgeStyle;fontSize=12;html=1;endArrow=ERmany;startArrow=ERmany;rounded=0;" edge="1" parent="1">
          <mxGeometry width="100" height="100" relative="1" as="geometry">
            <mxPoint x="1180" y="1530" as="sourcePoint" />
            <mxPoint x="1280" y="1430" as="targetPoint" />
          </mxGeometry>
        </mxCell>
        <mxCell id="Tv7fsrCwuL-PAWgneGHG-19" value="" style="edgeStyle=entityRelationEdgeStyle;fontSize=12;html=1;endArrow=ERmany;startArrow=ERmany;rounded=0;" edge="1" parent="1">
          <mxGeometry width="100" height="100" relative="1" as="geometry">
            <mxPoint x="1190" y="1540" as="sourcePoint" />
            <mxPoint x="1290" y="1440" as="targetPoint" />
          </mxGeometry>
        </mxCell>
        <mxCell id="Tv7fsrCwuL-PAWgneGHG-31" value="" style="edgeStyle=entityRelationEdgeStyle;fontSize=12;html=1;endArrow=ERmany;rounded=0;" edge="1" parent="1" source="G384VUHJVJKPxB7sCjbf-19" target="G384VUHJVJKPxB7sCjbf-21">
          <mxGeometry width="100" height="100" relative="1" as="geometry">
            <mxPoint x="870" y="1630" as="sourcePoint" />
            <mxPoint x="450" y="1070" as="targetPoint" />
            <Array as="points">
              <mxPoint x="550" y="1130" />
            </Array>
          </mxGeometry>
        </mxCell>
        <mxCell id="Tv7fsrCwuL-PAWgneGHG-33" value="" style="edgeStyle=entityRelationEdgeStyle;fontSize=12;html=1;endArrow=ERmany;rounded=0;entryX=0;entryY=0.5;entryDx=0;entryDy=0;" edge="1" parent="1" source="RYvwqwiHmOamptoqeDsD-31" target="G384VUHJVJKPxB7sCjbf-39">
          <mxGeometry width="100" height="100" relative="1" as="geometry">
            <mxPoint x="890" y="1650" as="sourcePoint" />
            <mxPoint x="990" y="1550" as="targetPoint" />
          </mxGeometry>
        </mxCell>
        <mxCell id="Tv7fsrCwuL-PAWgneGHG-34" value="" style="edgeStyle=entityRelationEdgeStyle;fontSize=12;html=1;endArrow=ERmany;rounded=0;entryX=0;entryY=0.5;entryDx=0;entryDy=0;" edge="1" parent="1" source="G384VUHJVJKPxB7sCjbf-28" target="RYvwqwiHmOamptoqeDsD-33">
          <mxGeometry width="100" height="100" relative="1" as="geometry">
            <mxPoint x="900" y="1660" as="sourcePoint" />
            <mxPoint x="1000" y="1560" as="targetPoint" />
          </mxGeometry>
        </mxCell>
        <mxCell id="Tv7fsrCwuL-PAWgneGHG-35" value="" style="edgeStyle=entityRelationEdgeStyle;fontSize=12;html=1;endArrow=ERmany;rounded=0;" edge="1" parent="1" source="G384VUHJVJKPxB7sCjbf-3" target="G384VUHJVJKPxB7sCjbf-61">
          <mxGeometry width="100" height="100" relative="1" as="geometry">
            <mxPoint x="490" y="940" as="sourcePoint" />
            <mxPoint x="590" y="840" as="targetPoint" />
            <Array as="points">
              <mxPoint x="210" y="310" />
            </Array>
          </mxGeometry>
        </mxCell>
        <mxCell id="Tv7fsrCwuL-PAWgneGHG-36" value="" style="edgeStyle=entityRelationEdgeStyle;fontSize=12;html=1;endArrow=ERmany;rounded=0;" edge="1" parent="1">
          <mxGeometry width="100" height="100" relative="1" as="geometry">
            <mxPoint x="920" y="1680" as="sourcePoint" />
            <mxPoint x="1020" y="1580" as="targetPoint" />
          </mxGeometry>
        </mxCell>
        <mxCell id="Tv7fsrCwuL-PAWgneGHG-37" value="" style="edgeStyle=entityRelationEdgeStyle;fontSize=12;html=1;endArrow=ERmany;rounded=0;" edge="1" parent="1">
          <mxGeometry width="100" height="100" relative="1" as="geometry">
            <mxPoint x="930" y="1690" as="sourcePoint" />
            <mxPoint x="1030" y="1590" as="targetPoint" />
          </mxGeometry>
        </mxCell>
        <mxCell id="Tv7fsrCwuL-PAWgneGHG-38" value="" style="edgeStyle=entityRelationEdgeStyle;fontSize=12;html=1;endArrow=ERmany;rounded=0;" edge="1" parent="1">
          <mxGeometry width="100" height="100" relative="1" as="geometry">
            <mxPoint x="940" y="1700" as="sourcePoint" />
            <mxPoint x="1040" y="1600" as="targetPoint" />
          </mxGeometry>
        </mxCell>
        <mxCell id="Tv7fsrCwuL-PAWgneGHG-39" value="" style="edgeStyle=entityRelationEdgeStyle;fontSize=12;html=1;endArrow=ERmany;rounded=0;" edge="1" parent="1">
          <mxGeometry width="100" height="100" relative="1" as="geometry">
            <mxPoint x="950" y="1710" as="sourcePoint" />
            <mxPoint x="1050" y="1610" as="targetPoint" />
          </mxGeometry>
        </mxCell>
        <mxCell id="Tv7fsrCwuL-PAWgneGHG-40" value="" style="edgeStyle=entityRelationEdgeStyle;fontSize=12;html=1;endArrow=ERmany;rounded=0;" edge="1" parent="1">
          <mxGeometry width="100" height="100" relative="1" as="geometry">
            <mxPoint x="960" y="1720" as="sourcePoint" />
            <mxPoint x="1060" y="1620" as="targetPoint" />
          </mxGeometry>
        </mxCell>
        <mxCell id="Tv7fsrCwuL-PAWgneGHG-41" value="" style="edgeStyle=entityRelationEdgeStyle;fontSize=12;html=1;endArrow=ERmany;rounded=0;" edge="1" parent="1">
          <mxGeometry width="100" height="100" relative="1" as="geometry">
            <mxPoint x="970" y="1730" as="sourcePoint" />
            <mxPoint x="1070" y="1630" as="targetPoint" />
          </mxGeometry>
        </mxCell>
        <mxCell id="Tv7fsrCwuL-PAWgneGHG-42" value="" style="edgeStyle=entityRelationEdgeStyle;fontSize=12;html=1;endArrow=ERmany;rounded=0;" edge="1" parent="1">
          <mxGeometry width="100" height="100" relative="1" as="geometry">
            <mxPoint x="980" y="1740" as="sourcePoint" />
            <mxPoint x="1080" y="1640" as="targetPoint" />
          </mxGeometry>
        </mxCell>
        <mxCell id="Tv7fsrCwuL-PAWgneGHG-43" value="" style="edgeStyle=entityRelationEdgeStyle;fontSize=12;html=1;endArrow=ERmany;rounded=0;" edge="1" parent="1">
          <mxGeometry width="100" height="100" relative="1" as="geometry">
            <mxPoint x="990" y="1750" as="sourcePoint" />
            <mxPoint x="1090" y="1650" as="targetPoint" />
          </mxGeometry>
        </mxCell>
        <mxCell id="Tv7fsrCwuL-PAWgneGHG-44" value="" style="edgeStyle=entityRelationEdgeStyle;fontSize=12;html=1;endArrow=ERmany;rounded=0;" edge="1" parent="1">
          <mxGeometry width="100" height="100" relative="1" as="geometry">
            <mxPoint x="1000" y="1760" as="sourcePoint" />
            <mxPoint x="1100" y="1660" as="targetPoint" />
          </mxGeometry>
        </mxCell>
        <mxCell id="Tv7fsrCwuL-PAWgneGHG-45" value="" style="edgeStyle=entityRelationEdgeStyle;fontSize=12;html=1;endArrow=ERmany;rounded=0;" edge="1" parent="1">
          <mxGeometry width="100" height="100" relative="1" as="geometry">
            <mxPoint x="1010" y="1770" as="sourcePoint" />
            <mxPoint x="1110" y="1670" as="targetPoint" />
          </mxGeometry>
        </mxCell>
        <mxCell id="Tv7fsrCwuL-PAWgneGHG-46" value="" style="edgeStyle=entityRelationEdgeStyle;fontSize=12;html=1;endArrow=ERmany;rounded=0;" edge="1" parent="1">
          <mxGeometry width="100" height="100" relative="1" as="geometry">
            <mxPoint x="1020" y="1780" as="sourcePoint" />
            <mxPoint x="1120" y="1680" as="targetPoint" />
          </mxGeometry>
        </mxCell>
        <mxCell id="Tv7fsrCwuL-PAWgneGHG-48" value="" style="edgeStyle=entityRelationEdgeStyle;fontSize=12;html=1;endArrow=ERmandOne;startArrow=ERmandOne;rounded=0;" edge="1" parent="1">
          <mxGeometry width="100" height="100" relative="1" as="geometry">
            <mxPoint x="500" y="1730" as="sourcePoint" />
            <mxPoint x="600" y="1630" as="targetPoint" />
          </mxGeometry>
        </mxCell>
        <mxCell id="Tv7fsrCwuL-PAWgneGHG-49" value="" style="edgeStyle=entityRelationEdgeStyle;fontSize=12;html=1;endArrow=ERmandOne;startArrow=ERmandOne;rounded=0;" edge="1" parent="1">
          <mxGeometry width="100" height="100" relative="1" as="geometry">
            <mxPoint x="510" y="1740" as="sourcePoint" />
            <mxPoint x="610" y="1640" as="targetPoint" />
          </mxGeometry>
        </mxCell>
        <mxCell id="Tv7fsrCwuL-PAWgneGHG-50" value="" style="edgeStyle=entityRelationEdgeStyle;fontSize=12;html=1;endArrow=ERmandOne;startArrow=ERmandOne;rounded=0;" edge="1" parent="1">
          <mxGeometry width="100" height="100" relative="1" as="geometry">
            <mxPoint x="520" y="1750" as="sourcePoint" />
            <mxPoint x="620" y="1650" as="targetPoint" />
          </mxGeometry>
        </mxCell>
        <mxCell id="Tv7fsrCwuL-PAWgneGHG-51" value="" style="edgeStyle=entityRelationEdgeStyle;fontSize=12;html=1;endArrow=ERmandOne;startArrow=ERmandOne;rounded=0;" edge="1" parent="1">
          <mxGeometry width="100" height="100" relative="1" as="geometry">
            <mxPoint x="530" y="1760" as="sourcePoint" />
            <mxPoint x="630" y="1660" as="targetPoint" />
          </mxGeometry>
        </mxCell>
        <mxCell id="Tv7fsrCwuL-PAWgneGHG-52" value="" style="edgeStyle=entityRelationEdgeStyle;fontSize=12;html=1;endArrow=ERmandOne;startArrow=ERmandOne;rounded=0;" edge="1" parent="1">
          <mxGeometry width="100" height="100" relative="1" as="geometry">
            <mxPoint x="540" y="1770" as="sourcePoint" />
            <mxPoint x="640" y="1670" as="targetPoint" />
          </mxGeometry>
        </mxCell>
        <mxCell id="Tv7fsrCwuL-PAWgneGHG-53" value="" style="edgeStyle=entityRelationEdgeStyle;fontSize=12;html=1;endArrow=ERmandOne;startArrow=ERmandOne;rounded=0;" edge="1" parent="1">
          <mxGeometry width="100" height="100" relative="1" as="geometry">
            <mxPoint x="550" y="1780" as="sourcePoint" />
            <mxPoint x="650" y="1680" as="targetPoint" />
          </mxGeometry>
        </mxCell>
        <mxCell id="Tv7fsrCwuL-PAWgneGHG-54" value="" style="edgeStyle=entityRelationEdgeStyle;fontSize=12;html=1;endArrow=ERmandOne;startArrow=ERmandOne;rounded=0;" edge="1" parent="1">
          <mxGeometry width="100" height="100" relative="1" as="geometry">
            <mxPoint x="560" y="1790" as="sourcePoint" />
            <mxPoint x="660" y="1690" as="targetPoint" />
          </mxGeometry>
        </mxCell>
        <mxCell id="Tv7fsrCwuL-PAWgneGHG-56" value="" style="edgeStyle=entityRelationEdgeStyle;fontSize=12;html=1;endArrow=ERzeroToOne;startArrow=ERmandOne;rounded=0;entryX=1;entryY=0.5;entryDx=0;entryDy=0;exitX=0;exitY=0.5;exitDx=0;exitDy=0;" edge="1" parent="1" source="p4-YSLTsnF-OEYS8-zl9-10" target="RYvwqwiHmOamptoqeDsD-9">
          <mxGeometry width="100" height="100" relative="1" as="geometry">
            <mxPoint x="1050" y="190" as="sourcePoint" />
            <mxPoint x="1070" y="420" as="targetPoint" />
            <Array as="points">
              <mxPoint x="830" y="195" />
              <mxPoint x="1110" y="235" />
              <mxPoint x="1200" y="245" />
              <mxPoint x="960" y="265" />
              <mxPoint x="810" y="345" />
            </Array>
          </mxGeometry>
        </mxCell>
        <mxCell id="Tv7fsrCwuL-PAWgneGHG-57" value="" style="edgeStyle=entityRelationEdgeStyle;fontSize=12;html=1;endArrow=ERzeroToOne;startArrow=ERmandOne;rounded=0;entryX=1;entryY=0.5;entryDx=0;entryDy=0;exitX=0;exitY=0.5;exitDx=0;exitDy=0;" edge="1" parent="1" source="G384VUHJVJKPxB7sCjbf-70" target="RYvwqwiHmOamptoqeDsD-9">
          <mxGeometry width="100" height="100" relative="1" as="geometry">
            <mxPoint x="909.0000000000002" y="130" as="sourcePoint" />
            <mxPoint x="1274.8" y="168.55999999999995" as="targetPoint" />
            <Array as="points">
              <mxPoint x="527.53" y="173.95" />
              <mxPoint x="807.5300000000001" y="213.95" />
              <mxPoint x="897.5300000000001" y="223.95" />
              <mxPoint x="657.5300000000001" y="243.95" />
              <mxPoint x="507.53" y="323.95" />
            </Array>
          </mxGeometry>
        </mxCell>
        <mxCell id="Tv7fsrCwuL-PAWgneGHG-76" value="" style="edgeStyle=entityRelationEdgeStyle;fontSize=12;html=1;endArrow=ERzeroToMany;endFill=1;rounded=0;entryX=0.988;entryY=0.267;entryDx=0;entryDy=0;entryPerimeter=0;" edge="1" parent="1" source="RYvwqwiHmOamptoqeDsD-21" target="G384VUHJVJKPxB7sCjbf-72">
          <mxGeometry width="100" height="100" relative="1" as="geometry">
            <mxPoint x="1541.4699999999998" y="664" as="sourcePoint" />
            <mxPoint x="1200" y="510" as="targetPoint" />
            <Array as="points">
              <mxPoint x="1530" y="670" />
            </Array>
          </mxGeometry>
        </mxCell>
        <mxCell id="Tv7fsrCwuL-PAWgneGHG-77" value="" style="edgeStyle=entityRelationEdgeStyle;fontSize=12;html=1;endArrow=ERzeroToMany;endFill=1;rounded=0;" edge="1" parent="1" source="G384VUHJVJKPxB7sCjbf-64" target="G384VUHJVJKPxB7sCjbf-62">
          <mxGeometry width="100" height="100" relative="1" as="geometry">
            <mxPoint x="1303" y="858.5" as="sourcePoint" />
            <mxPoint x="1190" y="621.5" as="targetPoint" />
            <Array as="points">
              <mxPoint x="1303" y="873.5" />
            </Array>
          </mxGeometry>
        </mxCell>
        <mxCell id="Tv7fsrCwuL-PAWgneGHG-80" value="" style="edgeStyle=entityRelationEdgeStyle;fontSize=12;html=1;endArrow=ERmany;rounded=0;" edge="1" parent="1" source="G384VUHJVJKPxB7sCjbf-5" target="G384VUHJVJKPxB7sCjbf-15">
          <mxGeometry width="100" height="100" relative="1" as="geometry">
            <mxPoint x="240" y="900" as="sourcePoint" />
            <mxPoint x="550" y="920" as="targetPoint" />
          </mxGeometry>
        </mxCell>
        <mxCell id="Tv7fsrCwuL-PAWgneGHG-81" value="" style="edgeStyle=entityRelationEdgeStyle;fontSize=12;html=1;endArrow=ERzeroToMany;endFill=1;rounded=0;exitX=0;exitY=0.5;exitDx=0;exitDy=0;" edge="1" parent="1" source="G384VUHJVJKPxB7sCjbf-91" target="G384VUHJVJKPxB7sCjbf-102">
          <mxGeometry width="100" height="100" relative="1" as="geometry">
            <mxPoint x="720" y="660" as="sourcePoint" />
            <mxPoint x="470" y="440" as="targetPoint" />
          </mxGeometry>
        </mxCell>
        <mxCell id="Tv7fsrCwuL-PAWgneGHG-82" value="" style="edgeStyle=entityRelationEdgeStyle;fontSize=12;html=1;endArrow=ERzeroToMany;endFill=1;rounded=0;entryX=0;entryY=0.5;entryDx=0;entryDy=0;" edge="1" parent="1" source="G384VUHJVJKPxB7sCjbf-91" target="G384VUHJVJKPxB7sCjbf-99">
          <mxGeometry width="100" height="100" relative="1" as="geometry">
            <mxPoint x="670" y="565" as="sourcePoint" />
            <mxPoint x="1020" y="220" as="targetPoint" />
          </mxGeometry>
        </mxCell>
        <mxCell id="Tv7fsrCwuL-PAWgneGHG-83" value="" style="edgeStyle=entityRelationEdgeStyle;fontSize=12;html=1;endArrow=ERzeroToMany;endFill=1;rounded=0;" edge="1" parent="1" source="G384VUHJVJKPxB7sCjbf-91" target="G384VUHJVJKPxB7sCjbf-100">
          <mxGeometry width="100" height="100" relative="1" as="geometry">
            <mxPoint x="710" y="655" as="sourcePoint" />
            <mxPoint x="590" y="370" as="targetPoint" />
          </mxGeometry>
        </mxCell>
        <mxCell id="Tv7fsrCwuL-PAWgneGHG-84" value="" style="edgeStyle=entityRelationEdgeStyle;fontSize=12;html=1;endArrow=ERzeroToMany;endFill=1;rounded=0;" edge="1" parent="1" source="G384VUHJVJKPxB7sCjbf-91" target="G384VUHJVJKPxB7sCjbf-74">
          <mxGeometry width="100" height="100" relative="1" as="geometry">
            <mxPoint x="690" y="495" as="sourcePoint" />
            <mxPoint x="1140" y="235" as="targetPoint" />
          </mxGeometry>
        </mxCell>
        <mxCell id="Tv7fsrCwuL-PAWgneGHG-85" value="" style="edgeStyle=entityRelationEdgeStyle;fontSize=12;html=1;endArrow=ERzeroToMany;endFill=1;rounded=0;" edge="1" parent="1" source="G384VUHJVJKPxB7sCjbf-91" target="G384VUHJVJKPxB7sCjbf-73">
          <mxGeometry width="100" height="100" relative="1" as="geometry">
            <mxPoint x="700" y="505" as="sourcePoint" />
            <mxPoint x="1150" y="245" as="targetPoint" />
          </mxGeometry>
        </mxCell>
      </root>
    </mxGraphModel>
  </diagram>
</mxfile>
